<svg width="37" height="37" viewBox="0 0 37 37" fill="none" xmlns="http://www.w3.org/2000/svg">
<path d="M30.7946 18.9524C30.7946 18.0982 30.7119 17.2164 30.5741 16.3896H18.642V21.2672H25.4761C25.2005 22.838 24.2912 24.2158 22.9409 25.0976L27.0193 28.2667C29.4167 26.0345 30.7946 22.7828 30.7946 18.9524Z" fill="#4280EF"/>
<path d="M18.6422 31.2952C22.0592 31.2952 24.9251 30.1653 27.0195 28.2363L22.9411 25.0949C21.8112 25.8665 20.3507 26.3074 18.6422 26.3074C15.3354 26.3074 12.5521 24.0753 11.5325 21.0991L7.34387 24.3233C9.49331 28.5946 13.8473 31.2952 18.6422 31.2952Z" fill="#34A353"/>
<path d="M11.532 21.0714C11.0085 19.5007 11.0085 17.7922 11.532 16.2214L7.3434 12.9697C5.5522 16.5521 5.5522 20.7683 7.3434 24.3231L11.532 21.0714Z" fill="#F6B704"/>
<path d="M18.6422 11.0158C20.4334 10.9883 22.197 11.6772 23.4922 12.9173L27.1021 9.27975C24.8149 7.13031 21.7837 5.97292 18.6422 6.00048C13.8473 6.00048 9.49331 8.70105 7.34387 12.9724L11.5325 16.2241C12.5521 13.2204 15.3354 11.0158 18.6422 11.0158Z" fill="#E54335"/>
</svg>
