<svg width="37" height="37" viewBox="0 0 37 37" fill="none" xmlns="http://www.w3.org/2000/svg">
<g clip-path="url(#clip0_859_7668)">
<rect x="5" y="5" width="26.5727" height="26.5727" rx="13.2863" fill="white"/>
<path fill-rule="evenodd" clip-rule="evenodd" d="M20.0586 14.3087H16.2945V18.2946H20.0586C21.1597 18.2946 22.0516 17.402 22.0516 16.3017C22.0516 15.2014 21.1597 14.3087 20.0586 14.3087ZM18.2874 5.0083C10.9492 5.0083 5.00106 10.9564 5.00106 18.2946C5.00106 25.6329 10.9492 31.581 18.2874 31.581C25.6248 31.581 31.5737 25.6329 31.5737 18.2946C31.5737 10.9564 25.6248 5.0083 18.2874 5.0083ZM20.0586 20.9519H16.2945V24.9378H13.6372V11.6515H20.0586C22.6271 11.6515 24.7089 13.7333 24.7089 16.3017C24.7089 18.8701 22.6271 20.9519 20.0586 20.9519Z" fill="#DE5425"/>
</g>
<defs>
<clipPath id="clip0_859_7668">
<rect x="5" y="5" width="26.5727" height="26.5727" rx="13.2863" fill="white"/>
</clipPath>
</defs>
</svg>
